<?xml version="1.0" standalone="no"?>
<!DOCTYPE svg PUBLIC "-//W3C//DTD SVG 20010904//EN"
 "http://www.w3.org/TR/2001/REC-SVG-20010904/DTD/svg10.dtd">
<svg version="1.0" xmlns="http://www.w3.org/2000/svg"
 width="500.000000pt" height="500.000000pt" viewBox="0 0 500.000000 500.000000"
 preserveAspectRatio="xMidYMid meet">
<metadata>
Created by potrace 1.11, written by Peter Selinger 2001-2013
</metadata>
<g transform="translate(0.000000,500.000000) scale(0.100000,-0.100000)"
fill="#000000" stroke="none">
<path d="M1611 3946 c-48 -98 -106 -138 -278 -195 -50 -16 -112 -39 -137 -51
-54 -24 -127 -95 -154 -150 l-19 -40 -18 46 c-37 98 -137 164 -280 184 -133
18 -175 33 -341 126 -59 33 -93 42 -95 27 -8 -50 -5 -120 7 -173 16 -74 62
-190 75 -190 5 0 9 -7 9 -16 0 -46 166 -212 287 -286 48 -29 106 -61 128 -71
65 -27 99 -40 118 -44 36 -7 57 -24 58 -48 1 -14 2 -28 3 -32 2 -5 6 -35 10
-68 5 -33 10 -69 13 -80 2 -11 6 -33 8 -50 4 -28 24 -147 29 -177 7 -37 41
-184 63 -268 60 -236 200 -507 353 -684 139 -161 332 -323 491 -414 31 -18 62
-39 69 -47 7 -8 21 -15 31 -15 11 0 19 -5 19 -10 0 -6 4 -9 8 -8 4 2 25 -4 45
-11 27 -11 36 -19 31 -30 -3 -9 -7 -20 -8 -26 -1 -5 -4 -14 -7 -20 -10 -16
-48 -137 -53 -167 -6 -39 24 -67 68 -63 42 5 157 52 218 89 24 15 70 44 104
65 41 26 66 36 76 30 36 -20 295 -29 453 -15 77 6 230 31 283 46 31 8 36 6 65
-28 101 -120 177 -167 223 -137 28 18 44 85 44 188 l0 85 38 15 c48 20 194 91
252 124 75 42 233 149 268 180 28 26 41 30 98 32 185 6 304 46 364 121 59 74
40 178 -47 267 -38 38 -104 86 -133 96 -10 3 -5 8 15 16 17 7 56 25 88 41 33
17 64 27 69 23 6 -3 8 -1 5 5 -4 5 5 21 20 34 55 46 73 78 73 128 0 56 -18 96
-63 137 -46 42 -153 90 -218 98 -82 10 -85 11 -130 83 -179 286 -416 427 -688
408 -164 -12 -292 -52 -506 -158 l-80 -40 -58 64 c-207 224 -294 300 -422 369
-169 90 -340 108 -392 40 -22 -28 -14 -58 28 -102 62 -67 114 -138 148 -204
31 -62 75 -194 85 -261 4 -20 9 -40 11 -45 3 -4 8 -46 11 -92 l6 -83 -66 -18
c-36 -10 -94 -22 -128 -26 -77 -9 -288 -3 -302 9 -6 5 -26 12 -45 16 -118 25
-285 130 -418 263 -55 55 -163 195 -163 211 0 6 -4 11 -8 11 -9 0 -92 151 -92
166 0 5 20 18 43 28 164 73 336 222 401 346 21 39 34 70 30 70 -3 0 0 7 7 17
10 11 14 48 14 132 0 97 -3 123 -21 161 -20 43 -55 90 -67 90 -3 0 -15 -20
-26 -44z"/>
</g>
</svg>
