<?xml version="1.0" encoding="utf-8"?>
<!-- Generator: Adobe Illustrator 24.0.1, SVG Export Plug-In . SVG Version: 6.00 Build 0)  -->
<svg version="1.1" id="Layer_1" xmlns="http://www.w3.org/2000/svg" xmlns:xlink="http://www.w3.org/1999/xlink" x="0px" y="0px"
	 viewBox="0 0 512 512" style="enable-background:new 0 0 512 512;" xml:space="preserve">
<style type="text/css">
	.st0{fill:#FFFFFF;}
</style>
<path class="st0" d="M331.9,256l142.3-142.3c15.7-15.7,15.7-41.2,0-56.9l-19-19c-15.7-15.7-41.2-15.7-56.9,0L256,180.1L113.7,37.8
	c-15.7-15.7-41.2-15.7-56.9,0l-19,19c-15.7,15.7-15.7,41.2,0,56.9L180.1,256L37.9,398.3c-15.7,15.7-15.7,41.2,0,56.9l19,19
	c15.7,15.7,41.2,15.7,56.9,0L256,331.9l142.3,142.3c15.7,15.7,41.2,15.7,56.9,0l19-19c15.7-15.7,15.7-41.2,0-56.9L331.9,256z"/>
</svg>
